<?xml version="1.0" encoding="UTF-8" standalone="no"?><!DOCTYPE svg PUBLIC "-//W3C//DTD SVG 1.1//EN" "http://www.w3.org/Graphics/SVG/1.1/DTD/svg11.dtd"><svg width="100%" height="100%" viewBox="0 0 499 90" version="1.1" xmlns="http://www.w3.org/2000/svg" xmlns:xlink="http://www.w3.org/1999/xlink" xml:space="preserve" xmlns:serif="http://www.serif.com/" style="fill-rule:evenodd;clip-rule:evenodd;stroke-linejoin:round;stroke-miterlimit:1.41421;"><path id="infoskjermen" d="M156.014,49.047c-0.041,-0.43 -0.08,-0.881 -0.116,-1.354c-0.135,0 -0.202,-0.371 -0.202,-1.114c0,-16.44 1.012,-26.223 3.037,-29.35c1.181,-5.139 3.004,-8.978 5.467,-11.516c0.844,-1.827 1.991,-3.004 3.443,-3.53c1.89,-0.867 3.374,-1.3 4.454,-1.3l1.823,0c1.856,0 3.746,0.805 5.67,2.415c1.215,1.857 1.822,3.158 1.822,3.901l0,5.201c0,1.393 -0.27,3.065 -0.81,5.015c0,1.579 -0.607,3.561 -1.822,5.944c-3.443,7.183 -5.468,10.774 -6.075,10.774c0,0.836 -1.755,3.189 -5.265,7.059c0,0.433 -0.607,1.053 -1.822,1.858c-0.237,1.764 -0.355,3.467 -0.355,5.108c0,3.374 0.49,6.532 1.468,9.473c0.405,-0.928 0.844,-2.012 1.317,-3.25c3.206,-5.449 6.378,-9.907 9.517,-13.375c0.81,-0.124 1.755,-0.743 2.835,-1.857c2.16,-1.239 3.509,-1.858 4.049,-1.858c1.62,0.31 2.43,1.177 2.43,2.601c0,1.052 -1.417,2.476 -4.252,4.272c-2.734,2.012 -4.489,3.932 -5.265,5.759c-0.675,1.021 -1.012,1.64 -1.012,1.857c0.438,0.31 1.046,1.3 1.822,2.972c1.789,1.982 3.274,3.158 4.455,3.53c1.215,1.548 2.767,2.786 4.657,3.715l1.013,0c1.35,0 2.295,-0.929 2.835,-2.787c0.303,0 0.843,-1.424 1.62,-4.272c0.311,-0.038 0.864,-1.082 1.66,-3.132c-0.034,-3.328 -0.081,-6.989 -0.142,-10.986c0.878,-5.325 2.228,-7.987 4.05,-7.987c0.236,-0.124 0.506,-0.186 0.81,-0.186c2.768,0 4.59,2.848 5.467,8.545c0.237,0 0.574,1.734 1.013,5.201l0,2.369c0.135,-0.093 0.27,-0.202 0.405,-0.326c1.816,-1.093 3.418,-1.957 4.804,-2.59c1.486,-6.486 5.503,-11.009 12.053,-13.57l2.43,0c6.48,0.402 9.72,1.455 9.72,3.158c1.62,2.631 2.43,4.612 2.43,5.944l0,3.715c0,0.929 -1.08,2.786 -3.24,5.573c-3.611,1.733 -6.379,2.6 -8.302,2.6c0,0.248 -0.473,0.372 -1.418,0.372l-2.227,0c0.709,2.105 1.586,3.777 2.632,5.015c0,1.548 1.89,2.848 5.67,3.901l1.822,0c1.553,0 4.118,-1.424 7.695,-4.272c0.034,-0.279 0.641,-0.836 1.823,-1.672c0.734,-0.733 1.376,-1.439 1.923,-2.118l0,-0.483c0,-3.158 -0.135,-6.006 -0.405,-8.545c0.034,-0.092 0.051,-0.185 0.051,-0.278c-0.236,-0.867 -0.354,-1.951 -0.354,-3.251c-0.169,-1.703 -0.372,-3.189 -0.608,-4.458l0,-0.186c0.203,-1.734 1.08,-2.6 2.632,-2.6c1.519,0 3.274,2.105 5.265,6.315l0,0.279l0.101,0.093c2.599,-3.22 5.232,-4.83 7.898,-4.83c0,-0.124 0.405,-0.186 1.215,-0.186l1.62,0c1.316,0 3.071,0.991 5.264,2.972c1.08,1.239 1.62,3.096 1.62,5.573l0,1.115c0,1.238 -0.607,2.91 -1.822,5.015c-1.789,1.951 -3.611,3.189 -5.467,3.715l-1.013,0.557c0.945,1.394 2.228,3.685 3.847,6.873c0.27,0 0.81,0.991 1.62,2.973c0.507,0.371 0.979,0.557 1.418,0.557l1.215,0c0,-0.217 0.54,-0.774 1.62,-1.672c1.755,-2.972 2.767,-4.582 3.037,-4.83c0.338,-0.154 1.013,-1.269 2.025,-3.343c0.46,-0.391 0.877,-0.9 1.251,-1.527c-0.092,-4.745 -0.137,-8.633 -0.137,-11.662c0.641,-3.096 1.721,-4.644 3.24,-4.644l0.202,0c1.755,0 2.632,1.548 2.632,4.644c0.507,0.526 1.114,3.808 1.823,9.845c0.135,0 0.202,0.186 0.202,0.557l0.405,0c0.945,-3.715 1.958,-6.625 3.038,-8.73l1.417,-5.016c0.338,-0.371 1.485,-2.352 3.443,-5.944c1.147,-1.61 2.362,-2.415 3.644,-2.415l0.203,0c2.531,0 4.218,1.982 5.062,5.945c0.27,2.848 0.405,6.315 0.405,10.402l0,1.486c0.405,1.115 0.608,1.981 0.608,2.601l0.202,0c0.979,-2.57 2.194,-5.356 3.645,-8.359c0.304,0 0.709,-0.929 1.215,-2.787l2.835,-5.387c1.586,-2.724 3.341,-4.086 5.265,-4.086c2.43,0 3.982,3.653 4.657,10.959c0.135,4.582 0.202,8.793 0.202,12.632c0.27,4.086 0.675,7.492 1.215,10.216c0.81,-0.712 1.823,-2.384 3.038,-5.015c0.51,-0.331 1.315,-1.986 2.414,-4.965c-0.057,-0.87 -0.086,-1.723 -0.086,-2.558c0,-9.876 4.236,-16.471 12.707,-19.783l2.43,0c6.479,0.402 9.719,1.455 9.719,3.158c1.62,2.631 2.43,4.612 2.43,5.944l0,3.715c0,0.929 -1.08,2.786 -3.24,5.573c-3.611,1.733 -6.378,2.6 -8.302,2.6c0,0.248 -0.472,0.372 -1.417,0.372l-2.228,0c0.709,2.105 1.587,3.777 2.633,5.015c0,1.548 1.89,2.848 5.67,3.901l1.822,0c1.552,0 4.117,-1.424 7.695,-4.272c0.033,-0.279 0.641,-0.836 1.822,-1.672c0.924,-0.922 1.701,-1.802 2.329,-2.638l0,-14.823c0,-4.211 1.417,-6.316 4.252,-6.316c2.295,0 3.982,1.114 5.062,3.344c0.675,1.981 1.013,5.696 1.013,11.145c-0.27,4.892 -0.608,7.678 -1.013,8.359l0,5.248c1.148,-3.406 1.992,-6.951 2.532,-10.635c0.809,-4.861 1.889,-9.071 3.239,-12.631c2.228,-5.078 4.59,-7.616 7.088,-7.616c0.371,-0.31 1.046,-0.496 2.025,-0.558l2.632,0c1.789,0.403 3.004,0.991 3.645,1.765c0.843,0.433 1.417,1.455 1.721,3.065l0,6.873l-1.822,14.675l0,12.12c2.159,-0.774 3.813,-3.018 4.961,-6.733c0.607,-0.712 1.08,-1.889 1.417,-3.53c1.856,-3.034 3.139,-6.006 3.847,-8.916c0.439,-1.115 1.317,-1.672 2.633,-1.672c1.282,0 2.092,0.805 2.43,2.415c-0.777,3.096 -2.329,6.873 -4.658,11.331c0,0.31 -0.54,1.734 -1.62,4.273c-0.675,2.012 -1.822,4.055 -3.442,6.13c-2.869,2.476 -5.535,3.715 -7.998,3.715l-2.633,0c-1.788,0 -3.273,-1.053 -4.455,-3.158c-0.27,-1.548 -0.405,-2.848 -0.405,-3.901l0,-7.43l1.62,-20.851c-0.506,0.185 -1.012,0.325 -1.518,0.417c-1.688,1.858 -2.7,4.521 -3.038,7.988c-0.945,5.697 -2.295,11.517 -4.05,17.461c-0.371,2.415 -1.299,3.808 -2.784,4.18c-0.067,0.031 -0.118,0.062 -0.152,0.092c-0.202,0 -1.552,0.62 -4.05,1.858l-0.202,0c-3.341,0 -5.366,-1.176 -6.075,-3.529c-0.675,-1.022 -1.012,-1.889 -1.012,-2.601l0,-1.672c0.044,-0.575 0.09,-1.144 0.136,-1.708l-0.035,0.036c0,0.217 -0.81,0.96 -2.43,2.23c-1.215,1.702 -2.835,3.003 -4.86,3.9c-1.923,1.363 -4.151,2.044 -6.682,2.044l-2.835,0c-5.681,-0.178 -10.498,-2.905 -14.45,-8.18c-0.588,0.564 -1.255,1.928 -2.002,4.093c-0.945,0.681 -1.958,2.229 -3.038,4.644c-1.89,1.858 -3.509,2.786 -4.859,2.786l-2.025,0c-2.127,0 -3.679,-1.486 -4.658,-4.458c0,-0.309 -0.27,-0.99 -0.81,-2.043c-1.08,-5.325 -1.62,-8.607 -1.62,-9.845l0,-10.217l-0.202,0c0,0.403 -0.338,1.146 -1.013,2.229c0,0.31 -0.81,2.229 -2.429,5.759c-0.675,2.26 -1.35,5.17 -2.025,8.73c-0.237,0.248 -0.642,2.291 -1.215,6.13l-1.62,2.229c-0.709,0.496 -1.451,0.743 -2.228,0.743c-2.7,-0.185 -4.05,-0.805 -4.05,-1.857c-1.349,-0.929 -2.024,-3.592 -2.024,-7.988l0,-10.402c-0.439,-1.238 -0.777,-2.539 -1.013,-3.901l0,-1.3c0,-0.248 -0.135,-0.372 -0.405,-0.372c-2.16,5.913 -3.24,9.319 -3.24,10.217c-1.215,4.334 -1.822,7.678 -1.822,10.031c-0.506,2.105 -1.586,3.157 -3.24,3.157c-3.071,0 -4.826,-1.609 -5.265,-4.829c-0.41,0 -0.803,-1.203 -1.179,-3.609c-0.475,0.672 -0.925,1.255 -1.352,1.751c-1.384,3.034 -3.409,5.201 -6.075,6.502l-2.43,0c-3.51,0 -5.804,-1.424 -6.884,-4.273c0,-0.247 -1.215,-2.538 -3.645,-6.873l-1.823,-2.6l-0.202,0c0.27,1.393 0.405,2.384 0.405,2.972l0,7.059c-0.068,1.424 -0.945,3.096 -2.633,5.015c-1.383,0.495 -2.328,0.743 -2.834,0.743l-0.203,0c-1.417,0 -2.43,-0.619 -3.037,-1.858c-0.979,-0.402 -1.722,-2.26 -2.228,-5.572l0,-3.101c-0.1,0.104 -0.201,0.209 -0.304,0.314c0,0.217 -0.809,0.96 -2.429,2.23c-1.215,1.702 -2.835,3.003 -4.86,3.9c-1.924,1.363 -4.151,2.044 -6.682,2.044l-2.835,0c-5.94,-0.186 -10.935,-3.158 -14.985,-8.917c-0.945,-2.198 -1.417,-4.179 -1.417,-5.944c-0.101,-1.176 -0.152,-2.322 -0.152,-3.436c0,-0.157 0.001,-0.314 0.003,-0.469c-1.509,0.976 -2.742,2.077 -3.699,3.302c0.102,1.455 0.152,3.018 0.152,4.69l0,7.43c0,2.415 -0.337,5.542 -1.012,9.381c-0.945,3.901 -2.329,6.78 -4.151,8.637c-0.641,0.929 -2.261,1.61 -4.86,2.044c-0.574,0 -1.316,0.062 -2.227,0.186c-2.734,-1.053 -4.152,-2.415 -4.253,-4.087c-0.135,-0.341 -0.202,-0.712 -0.202,-1.115l0,-4.086c0.067,-2.044 1.316,-6.161 3.746,-12.353c0.074,-0.375 0.19,-0.765 0.346,-1.168c-0.723,1.13 -1.277,1.921 -1.662,2.375c-2.194,1.61 -3.746,2.415 -4.658,2.415l-1.62,0c-2.227,0 -4.792,-1.734 -7.694,-5.201c-2.633,-1.981 -4.793,-4.025 -6.48,-6.13l-3.24,8.359c-0.574,2.724 -1.586,4.087 -3.037,4.087l-0.203,0c-2.497,0 -4.455,-1.672 -5.872,-5.016c-0.405,-0.124 -0.878,-1.362 -1.418,-3.715c-0.202,0 -0.539,-1.486 -1.012,-4.458l0,-2.415c-0.071,-0.154 -0.14,-0.329 -0.206,-0.525c-2.436,1.719 -4.628,2.947 -6.577,3.683c-1.249,1.362 -2.059,2.043 -2.43,2.043l0,1.672c0,5.635 -2.295,9.938 -6.885,12.91c-1.62,0.496 -3.105,1.053 -4.455,1.672c-0.236,0.124 -0.574,0.186 -1.012,0.186l-1.823,0c-2.295,0 -3.645,-0.929 -4.05,-2.787c0.473,-2.6 1.215,-4.597 2.228,-5.99c1.653,-2.353 3.408,-4.288 5.265,-5.805l2.834,-2.601c-1.181,-2.507 -3.408,-4.489 -6.682,-5.944c-0.055,-0.17 -0.387,-0.472 -0.994,-0.904c-0.899,1.023 -2.154,2.191 -3.764,3.505c-0.338,0 -2.025,0.805 -5.063,2.415c-0.135,0 -1.08,0.185 -2.835,0.557l-0.81,0c0,0.619 -0.337,1.455 -1.012,2.508c0,1.702 -0.945,3.436 -2.835,5.201l-4.252,3.808c-3.611,2.105 -6.041,3.158 -7.29,3.158l-2.835,0c-3.543,-0.558 -5.973,-1.425 -7.289,-2.601c0,-0.433 -0.878,-1.145 -2.633,-2.136c0,-0.248 -0.405,-1.053 -1.215,-2.415c-0.81,-1.455 -1.215,-2.755 -1.215,-3.901l0,-2.415c0,-3.343 0.338,-5.356 1.013,-6.037c0.073,-0.254 0.147,-0.503 0.22,-0.747c-1.562,1.209 -3.425,2.263 -5.586,3.162c0,0.248 -0.81,0.619 -2.43,1.115l0,0.185c0,0.341 0.675,1.765 2.025,4.273c1.08,4.644 1.62,7.863 1.62,9.659l0,8.916c0,1.548 -0.81,3.839 -2.43,6.873c-1.047,1.115 -2.801,1.672 -5.265,1.672c-2.531,0 -4.151,-0.495 -4.86,-1.486c-2.531,-0.867 -4.623,-2.539 -6.277,-5.015c-1.755,-3.777 -2.97,-7.678 -3.645,-11.703c-0.118,-1.856 -0.275,-3.445 -0.471,-4.768c-0.694,1.692 -1.718,3.405 -3.073,5.14c-2.868,2.476 -5.534,3.715 -7.998,3.715l-2.632,0c-1.789,0 -3.274,-1.053 -4.455,-3.158c-0.27,-1.548 -0.405,-2.848 -0.405,-3.901l0,-7.43l1.62,-20.851c-0.507,0.185 -1.013,0.325 -1.519,0.417c-1.687,1.858 -2.7,4.521 -3.037,7.988c-0.945,5.697 -2.295,11.517 -4.05,17.461c-0.371,2.415 -1.3,3.808 -2.785,4.18c-0.067,0.031 -0.118,0.062 -0.151,0.092c-0.203,0 -1.553,0.62 -4.05,1.858l-0.203,0c-3.341,0 -5.366,-1.176 -6.074,-3.529c-0.575,-0.87 -0.905,-1.628 -0.99,-2.273c-0.76,1.079 -1.409,1.775 -1.947,2.087c-3.206,3.096 -6.243,4.644 -9.112,4.644l-1.012,0c-3.105,-0.557 -4.658,-1.362 -4.658,-2.415c-1.653,-1.858 -2.733,-3.839 -3.239,-5.944c-0.372,0 -0.979,-2.972 -1.823,-8.917c-0.27,-2.786 -0.405,-4.272 -0.405,-4.458c0.135,-8.916 1.89,-15.046 5.265,-18.39c2.194,0 3.679,0.929 4.455,2.787c0.27,0.34 0.54,1.579 0.81,3.715l0,3.994c0,0.99 0.202,2.198 0.607,3.622l0,7.059l1.215,9.659c0.405,0.743 1.013,1.115 1.823,1.115l0.607,0c0.743,0 2.025,-0.743 3.847,-2.23c1.877,-3.442 3.328,-6.212 4.354,-8.312l0,-14.721c0,-4.211 1.417,-6.316 4.252,-6.316c2.295,0 3.983,1.114 5.063,3.344c0.675,1.981 1.012,5.696 1.012,11.145c-0.27,4.892 -0.607,7.678 -1.012,8.359l0,5.248c1.147,-3.406 1.991,-6.951 2.531,-10.635c0.81,-4.861 1.89,-9.071 3.24,-12.631c2.227,-5.078 4.59,-7.616 7.087,-7.616c0.371,-0.31 1.046,-0.496 2.025,-0.558l2.632,0c1.789,0.403 3.004,0.991 3.645,1.765c0.844,0.433 1.418,1.455 1.721,3.065l0,6.873l-1.822,14.675l0,12.12c2.16,-0.774 3.813,-3.018 4.961,-6.733c0.607,-0.712 1.08,-1.889 1.417,-3.53c0.477,-0.779 0.916,-1.553 1.317,-2.324l0,-10.679l0.809,-5.944c0.135,-4.334 0.338,-6.501 0.608,-6.501c-0.135,-0.496 -0.203,-0.929 -0.203,-1.301c0,-0.897 0.743,-3.746 2.228,-8.544c0,-1.61 1.755,-5.821 5.265,-12.632c0.945,-1.052 1.822,-1.857 2.632,-2.415c0.304,-0.959 2.194,-2.074 5.67,-3.343c1.451,-0.248 2.396,-0.372 2.835,-0.372c1.215,0 2.97,1.61 5.265,4.83c0.27,1.579 0.405,3.065 0.405,4.458l0,1.115c-0.304,4.953 -0.844,8.049 -1.62,9.287c-0.878,3.685 -1.755,6.099 -2.633,7.245c-1.012,2.136 -2.7,4.922 -5.062,8.359c-0.236,0 -1.316,1.61 -3.24,4.83c-0.337,0 -0.54,0.743 -0.607,2.229l0,7.616l0.202,0c0.608,-0.372 1.08,-0.558 1.417,-0.558c1.215,0.124 2.228,0.372 3.038,0.743c5.265,-2.352 7.897,-3.839 7.897,-4.458c2.329,-1.61 3.881,-2.415 4.657,-2.415c0.577,-0.184 1.06,-0.333 1.451,-0.449c0.023,-0.036 0.045,-0.072 0.068,-0.108c1.148,-1.176 2.16,-2.415 3.037,-3.715c2.869,-2.693 5.299,-4.303 7.29,-4.83c0,-0.402 1.08,-1.021 3.24,-1.857c0.405,-0.155 0.81,-0.232 1.215,-0.232c0.742,0 1.434,0.325 2.076,0.975c0.269,0.526 0.404,1.083 0.404,1.672l0,0.185c-0.236,0.929 -0.995,1.734 -2.278,2.415c-1.349,0.898 -2.024,1.455 -2.024,1.672c0,0.867 -1.013,1.858 -3.038,2.972c-1.012,0.991 -2.092,3.22 -3.24,6.687c-0.54,0 -0.81,0.743 -0.81,2.229l0,0.372c0,1.734 -0.067,3.313 -0.202,4.737c0,0.34 0.81,1.95 2.43,4.829c0,0.217 0.81,0.96 2.43,2.229l1.215,0c0.877,0 1.957,-0.495 3.239,-1.486c2.16,-1.021 3.578,-2.322 4.253,-3.9c1.181,-1.115 1.923,-1.951 2.227,-2.508l0,-0.557c-1.114,0 -2.598,-0.867 -4.455,-2.601c-2.43,-2.043 -3.644,-4.025 -3.644,-5.944l0,-4.83c0,-2.26 1.079,-3.684 3.239,-4.272c0.237,-0.124 0.574,-0.186 1.013,-0.186l2.835,0c1.788,0.124 3.611,1.3 5.467,3.529c0.945,2.384 1.417,3.994 1.417,4.83l0,1.3c0,0.65 -0.202,1.208 -0.607,1.672l0,2.415c0.405,0 2.295,-0.805 5.67,-2.415c0.988,-0.753 1.843,-1.563 2.564,-2.429c-0.967,-0.934 -1.451,-1.672 -1.451,-2.215c-0.27,-0.991 -0.405,-1.61 -0.405,-1.857l0,-2.601c0,-1.765 1.148,-4.118 3.443,-7.059c1.485,-2.322 2.767,-3.56 3.847,-3.715c1.553,-0.867 3.375,-1.362 5.467,-1.486l1.823,0c2.531,0 4.286,0.929 5.265,2.786c1.485,1.332 2.227,2.508 2.227,3.53l0,0.743c-0.574,2.972 -1.114,4.458 -1.62,4.458c-0.506,0.372 -1.114,0.557 -1.822,0.557c-1.62,-0.309 -2.43,-1.176 -2.43,-2.6c0,-0.31 0.135,-0.991 0.405,-2.044c-0.27,-0.402 -0.405,-0.774 -0.405,-1.114l-2.228,0c-2.025,1.331 -3.037,2.384 -3.037,3.158c-0.135,0.681 -0.202,1.362 -0.202,2.043c0.168,0.774 1.248,1.641 3.239,2.601c0,0.216 0.81,0.897 2.43,2.043c2.363,2.415 3.848,4.892 4.455,7.43c0.135,0 0.203,0.062 0.203,0.186l5.264,-2.972c1.217,-0.839 2.301,-1.564 3.255,-2.176Zm-81.416,8.306l0,0.186c0.135,10.804 0.202,17.058 0.202,18.761c0.945,4.52 1.62,6.873 2.025,7.059c0.945,0.371 1.417,0.743 1.417,1.114l1.013,0c0.506,0 1.114,-1.3 1.822,-3.901l0,-8.73c-0.607,-5.821 -1.215,-8.731 -1.822,-8.731c-1.148,-3.343 -2.295,-5.015 -3.443,-5.015c0,-0.124 -0.404,-0.372 -1.214,-0.743Zm122.659,15.278c-1.519,3.065 -2.278,5.031 -2.278,5.898l0,1.579c0.304,0.464 0.574,1.053 0.81,1.765c0.844,-0.341 1.519,-0.898 2.025,-1.672l0,-1.115c0,-1.393 0.067,-2.724 0.202,-3.993c-0.27,-0.434 -0.523,-1.254 -0.759,-2.462Zm224.969,-0.975l-0.203,0c-3.341,0 -5.366,-1.176 -6.075,-3.529c-0.675,-1.022 -1.012,-1.889 -1.012,-2.601l0,-1.672c0.236,-3.065 0.506,-5.975 0.81,-8.73l0,-15.975c0,-4.211 1.417,-6.316 4.252,-6.316c2.295,0 3.983,1.114 5.063,3.344c0.675,1.981 1.012,5.696 1.012,11.145c-0.27,4.892 -0.607,7.678 -1.012,8.359l0,5.248c1.147,-3.406 1.991,-6.951 2.531,-10.635c0.81,-4.861 1.89,-9.071 3.24,-12.631c2.227,-5.078 4.589,-7.616 7.087,-7.616c0.371,-0.31 1.046,-0.496 2.025,-0.558l2.632,0c1.789,0.403 3.004,0.991 3.645,1.765c0.844,0.433 1.417,1.455 1.721,3.065l0,6.873l-1.822,14.675l0,12.12c2.16,-0.774 3.813,-3.018 4.961,-6.733c0.607,-0.712 1.08,-1.889 1.417,-3.53c1.856,-3.034 3.139,-6.006 3.848,-8.916c0.185,-0.471 0.448,-0.842 0.79,-1.114c0.243,-0.489 0.486,-0.922 0.728,-1.301c1.148,-1.176 2.16,-2.415 3.038,-3.715c2.868,-2.693 5.298,-4.303 7.289,-4.83c0,-0.402 1.08,-1.021 3.24,-1.857c0.405,-0.155 0.81,-0.232 1.215,-0.232c0.743,0 1.435,0.325 2.076,0.975c0.27,0.526 0.405,1.083 0.405,1.672l0,0.185c-0.237,0.929 -0.996,1.734 -2.278,2.415c-1.35,0.898 -2.025,1.455 -2.025,1.672c0,0.867 -1.013,1.858 -3.038,2.972c-1.012,0.991 -2.092,3.22 -3.239,6.687c-0.54,0 -0.81,0.743 -0.81,2.229l0,0.372c0,1.734 -0.068,3.313 -0.203,4.737c0,0.34 0.81,1.95 2.43,4.829c0,0.217 0.81,0.96 2.43,2.229l1.215,0c0.877,0 1.957,-0.495 3.24,-1.486c2.16,-1.021 3.577,-2.322 4.252,-3.9c1.181,-1.115 1.924,-1.951 2.227,-2.508l0,-0.557c-1.113,0 -2.598,-0.867 -4.454,-2.601c-2.43,-2.043 -3.645,-4.025 -3.645,-5.944l0,-4.83c0,-2.26 1.08,-3.684 3.24,-4.272c0.236,-0.124 0.573,-0.186 1.012,-0.186l2.835,0c1.789,0.124 3.611,1.3 5.467,3.529c0.945,2.384 1.418,3.994 1.418,4.83l0,1.3c0,0.65 -0.203,1.208 -0.608,1.672l0,2.415c0.405,0 2.295,-0.805 5.67,-2.415c1.789,-1.362 3.139,-2.91 4.05,-4.644c0.911,-0.371 1.519,-0.557 1.822,-0.557c1.62,0.31 2.43,1.176 2.43,2.601c0,1.486 -1.822,3.715 -5.467,6.687c-0.338,0 -2.025,0.805 -5.062,2.415c-0.135,0 -1.08,0.185 -2.835,0.557l-0.81,0c0,0.619 -0.338,1.455 -1.013,2.508c0,1.702 -0.945,3.436 -2.835,5.201l-4.252,3.808c-3.611,2.105 -6.041,3.158 -7.29,3.158l-2.835,0c-3.543,-0.558 -5.973,-1.425 -7.289,-2.601c0,-0.433 -0.878,-1.145 -2.633,-2.136c0,-0.248 -0.405,-1.053 -1.215,-2.415c-0.07,-0.127 -0.138,-0.253 -0.203,-0.378c-0.694,1.744 -1.74,3.511 -3.138,5.301c-2.868,2.476 -5.534,3.715 -7.998,3.715l-2.633,0c-1.788,0 -3.273,-1.053 -4.454,-3.158c-0.27,-1.548 -0.405,-2.848 -0.405,-3.901l0,-7.43l1.62,-20.851c-0.507,0.185 -1.013,0.325 -1.519,0.417c-1.688,1.858 -2.7,4.521 -3.038,7.988c-0.944,5.697 -2.294,11.517 -4.049,17.461c-0.372,2.415 -1.3,3.808 -2.785,4.18c-0.067,0.031 -0.118,0.062 -0.151,0.092c-0.203,0 -1.553,0.62 -4.05,1.858Zm-13.719,0.186l-1.215,0c-2.7,-0.65 -4.05,-1.331 -4.05,-2.044c-0.337,-0.34 -0.54,-0.959 -0.607,-1.857l0,-1.672c0,-0.898 0.405,-1.641 1.215,-2.229c0.54,-0.991 1.417,-1.486 2.632,-1.486l0.405,0c2.7,0.155 4.05,0.96 4.05,2.415c0.54,0.495 0.81,1.176 0.81,2.043l0,1.115c0,1.981 -1.08,3.219 -3.24,3.715Zm-296.752,-23.963l0,1.672c0,0.557 1.012,1.734 3.037,3.529l0,0.186l0.203,0l0,-1.672c-0.304,-1.331 -1.384,-2.569 -3.24,-3.715Zm364.536,0l0,1.672c0,0.557 1.012,1.734 3.037,3.529l0,0.186l0.203,0l0,-1.672c-0.304,-1.331 -1.384,-2.569 -3.24,-3.715Zm-215.856,-6.873l-0.405,0c-2.025,0 -3.51,0.805 -4.455,2.415c-0.54,0.217 -1.148,1.331 -1.823,3.344c-0.27,0.124 -0.472,0.185 -0.607,0.185l0,0.186l1.012,4.83c2.093,0 4.725,-1.177 7.898,-3.53c0.674,-1.145 1.012,-2.26 1.012,-3.343l0,-0.929c0,-1.455 -0.877,-2.508 -2.632,-3.158Zm-38.727,7.988l1.417,0c3.645,-0.372 6.21,-1.053 7.695,-2.044l1.62,-2.229l0,-3.157c0,-0.558 -0.675,-1.92 -2.025,-4.087l-1.822,0c-2.16,0 -3.848,1.981 -5.063,5.944c-0.438,0 -1.046,1.858 -1.822,5.573Zm125.191,-11.517l-1.823,0c-2.16,0 -3.847,1.981 -5.062,5.944c-0.439,0 -1.046,1.858 -1.823,5.573l1.418,0c3.645,-0.372 6.21,-1.053 7.695,-2.044l1.62,-2.229l0,-3.157c0,-0.558 -0.675,-1.92 -2.025,-4.087Zm-182.294,-4.087c-0.27,1.208 -0.405,1.889 -0.405,2.044l0,1.857l0.203,0c0,-0.217 1.08,-1.579 3.24,-4.087c0.303,-0.774 1.113,-2.012 2.43,-3.715c0.168,-0.588 1.248,-2.507 3.239,-5.758c0,-0.372 0.675,-2.105 2.025,-5.201c0.135,-2.353 0.473,-4.087 1.013,-5.201l0,-5.387c0,-0.372 -0.203,-0.867 -0.608,-1.486c-0.27,0.123 -0.472,0.185 -0.607,0.185l-1.823,-0.185c-3.374,2.352 -5.062,4.891 -5.062,7.616c-2.43,5.448 -3.645,9.535 -3.645,12.259l0,7.059Zm-87.578,-10.774l0,3.53l-0.81,6.687l0,0.186l0.203,0c2.43,-3.994 3.982,-7.276 4.657,-9.845c0.81,-2.075 1.35,-5.109 1.62,-9.102l0,-2.23c0,-1.362 -0.405,-2.291 -1.215,-2.786c-0.337,0 -1.35,2.786 -3.037,8.359c-0.945,2.57 -1.418,4.304 -1.418,5.201Zm123.116,5.387l-0.203,0c-3.24,0 -4.86,-1.3 -4.86,-3.901l0,-2.229c0,-2.384 1.013,-3.87 3.038,-4.458c1.046,-0.371 1.788,-0.557 2.227,-0.557l0.81,0c2.194,0 3.949,1.734 5.265,5.201l0,0.743c0,1.053 -0.743,2.105 -2.228,3.158c-1.417,1.362 -2.767,2.043 -4.049,2.043Zm-191.811,-13.746c1.687,0 3.645,1.424 5.872,4.273c0.27,0.464 0.405,1.145 0.405,2.043c-0.945,3.344 -1.755,5.015 -2.43,5.015c-1.856,0.991 -3.746,1.487 -5.669,1.487c-1.89,0 -3.578,-0.929 -5.063,-2.787c-0.675,-0.929 -1.012,-2.353 -1.012,-4.272l0,-0.743c0,-2.26 1.957,-3.932 5.872,-5.016l2.025,0Z" style="fill:#fefffe;"/></svg>